<svg xmlns="http://www.w3.org/2000/svg" viewBox="100 0 3450 1700">
  <g transform="translate(0,1650) scale(1,-1)">
    <!-- ᘚ U+161A -->
    <path d="M1147 -25Q982 -25 853.0 40.5Q724 106 625.0 226.0Q526 346 453.5 516.0Q381 686 330 895V0H172V1567H330V1458Q361 1294 399.5 1132.0Q438 970 487.0 822.5Q536 675 598.5 548.5Q661 422 739.0 329.5Q817 237 912.5 184.5Q1008 132 1125 132Q1245 132 1340.0 180.5Q1435 229 1501.5 316.5Q1568 404 1603.0 526.5Q1638 649 1638 797Q1638 961 1601.0 1083.0Q1564 1205 1498.0 1286.0Q1432 1367 1342.0 1407.5Q1252 1448 1147 1448Q1071 1448 1013.0 1426.5Q955 1405 915.0 1366.0Q875 1327 854.5 1273.5Q834 1220 834 1157Q834 1085 847.0 1036.5Q860 988 882.0 958.5Q904 929 933.5 917.0Q963 905 996 905Q1038 905 1073.5 921.5Q1109 938 1137 959L1203 845Q1158 808 1104.0 785.0Q1050 762 990 762Q826 762 749.0 864.0Q672 966 672 1156Q672 1261 706.5 1342.5Q741 1424 804.0 1479.5Q867 1535 956.0 1563.5Q1045 1592 1154 1592Q1279 1592 1396.0 1543.0Q1513 1494 1604.5 1394.0Q1696 1294 1751.0 1142.5Q1806 991 1806 786Q1806 618 1762.5 470.5Q1719 323 1635.0 212.5Q1551 102 1428.0 38.5Q1305 -25 1147 -25Z" fill="#C5C5C5"/>
    <!-- ᘛ U+161B -->
    <g transform="translate(1700,0)">
      <path d="M763 -25Q605 -25 482.0 38.5Q359 102 275.0 212.5Q191 323 147.5 470.5Q104 618 104 786Q104 923 129.0 1035.5Q154 1148 199.0 1237.5Q244 1327 305.5 1393.5Q367 1460 439.5 1504.0Q512 1548 592.5 1570.0Q673 1592 756 1592Q865 1592 954.0 1563.5Q1043 1535 1106.0 1479.5Q1169 1424 1203.5 1342.5Q1238 1261 1238 1156Q1238 966 1161.0 864.0Q1084 762 920 762Q860 762 806.0 785.0Q752 808 707 845L773 959Q801 938 836.5 921.5Q872 905 914 905Q947 905 976.5 917.0Q1006 929 1028.0 958.5Q1050 988 1063.0 1036.5Q1076 1085 1076 1157Q1076 1220 1055.5 1273.5Q1035 1327 995.5 1366.0Q956 1405 897.5 1426.5Q839 1448 763 1448Q658 1448 568.0 1407.5Q478 1367 412.0 1286.0Q346 1205 309.0 1083.0Q272 961 272 797Q272 649 307.0 526.5Q342 404 408.5 316.5Q475 229 570.0 180.5Q665 132 785 132Q902 132 997.5 184.5Q1093 237 1171.0 329.5Q1249 422 1311.5 548.5Q1374 675 1423.0 822.5Q1472 970 1510.5 1132.0Q1549 1294 1580 1458V1567H1738V0H1580V895Q1529 686 1456.5 516.0Q1384 346 1285.0 226.0Q1186 106 1057.0 40.5Q928 -25 763 -25Z" fill="#C5C5C5"/>
    </g>
  </g>
</svg>
