<svg xmlns="http://www.w3.org/2000/svg" viewBox="0 0 128 128">
  <defs>
    <linearGradient id="kagan-gradient" x1="0" y1="0" x2="1" y2="1">
      <stop offset="0%" stop-color="#3fb58e" />
      <stop offset="100%" stop-color="#d4a84b" />
    </linearGradient>
  </defs>
  <rect x="6" y="6" width="116" height="116" rx="18" fill="#000000" />
  <path
    d="M146 0V260C206 70 320 -12 503 -12C721 -12 849 122 849 348C849 593 743 726 549 726C390 726 296 643 296 502C296 376 374 296 495 296C539 296 585 310 605 328L580 395C564 379 529 367 496 367C420 367 374 417 374 500C374 602 434 655 549 655C693 655 771 548 771 349C771 164 673 58 503 58C253 58 148 250 146 714H68V0Z M1333 -12C1516 -12 1630 70 1690 260V0H1768V714H1690C1688 250 1583 58 1333 58C1163 58 1065 164 1065 349C1065 548 1143 655 1287 655C1402 655 1462 602 1462 500C1462 417 1416 367 1340 367C1308 367 1272 379 1256 395L1231 328C1251 310 1297 296 1341 296C1462 296 1540 376 1540 502C1540 643 1446 726 1287 726C1093 726 987 593 987 348C987 122 1115 -12 1333 -12Z"
    fill="url(#kagan-gradient)"
    transform="translate(14 42.2941) scale(0.0588235) translate(-68 12)"
  />
</svg>
